#!OML:ASF E:\acrobat2\Project_11_07_03\Capture day 1\Session 1\Acrobat.ASF
:FULLY-SPECIFIED
:DEGREES
693
root 10.7476 6.03388 11.662 -88.5686 4.21337 177.869
lowerback -4.76168 -3.43245 5.21313
upperback 0.849056 -4.928 0.518666
thorax 3.15341 -2.36895 -2.72454
lowerneck 2.52669 -14.9201 -10.2737
upperneck -28.1474 -15.85 28.7776
head -5.06017 -8.34075 11.631
rclavicle 1.90833e-014 2.31087e-015
rhumerus 31.9028 -34.7653 -32.1321
rradius 119.891
rwrist -22.8493
rhand -19.4412 -42.5245
rfingers 7.12502
rthumb 6.8793 -72.3927
lclavicle 1.90833e-014 2.31087e-015
lhumerus 18.1298 49.1681 3.06502
lradius 108.336
lwrist 34.1643
lhand -5.68374 -25.0176
lfingers 7.12502
lthumb 20.1363 3.9588
rfemur 2.09999 14.9522 -8.99387
rtibia -2.34566e-014
rfoot 30.3561 -24.2789
rtoes 35.4426
lfemur -12.1798 -21.9835 2.72928
ltibia 19.0347
lfoot 37.7307 11.1927
ltoes 18.3981
694
root 10.7474 6.03391 11.6618 -88.5669 4.21334 177.855
lowerback -4.76479 -3.43317 5.21852
upperback 0.853108 -4.92957 0.516819
thorax 3.15864 -2.36939 -2.72991
lowerneck 2.53741 -14.8894 -10.3115
upperneck -28.1563 -15.8105 28.7453
head -5.07273 -8.31503 11.6319
rclavicle 6.52014e-014 -9.11925e-015
rhumerus 31.9018 -34.7718 -32.1382
rradius 119.893
rwrist -22.8359
rhand -19.4403 -42.5072
rfingers 7.12502
rthumb 6.88016 -72.3754
lclavicle 6.52014e-014 -9.11925e-015
lhumerus 18.1425 49.1806 3.09566
lradius 108.338
lwrist 34.1314
lhand -5.68309 -25.021
lfingers 7.12502
lthumb 20.137 3.9554
rfemur 2.10805 14.9392 -8.99716
rtibia -2.78299e-015
rfoot 30.2964 -24.3317
rtoes 35.7033
lfemur -12.1903 -21.9868 2.73299
ltibia 19.0373
lfoot 37.7396 11.199
ltoes 18.4273
695
root 10.7471 6.03372 11.6613 -88.5658 4.20264 177.841
lowerback -4.7691 -3.43258 5.23602
upperback 0.856459 -4.93035 0.51798
thorax 3.16317 -2.36929 -2.73887
lowerneck 2.57106 -14.8586 -10.3465
upperneck -28.1961 -15.766 28.7196
head -5.09937 -8.28828 11.6408
rclavicle 7.95139e-015 1.33186e-014
rhumerus 31.8954 -34.779 -32.1408
rradius 119.892
rwrist -22.8249
rhand -19.4268 -42.48
rfingers 7.12502
rthumb 6.89312 -72.3478
lclavicle 7.95139e-015 1.33186e-014
lhumerus 18.1642 49.1907 3.13091
lradius 108.337
lwrist 34.1002
lhand -5.68396 -25.0103
lfingers 7.12502
lthumb 20.1361 3.96618
rfemur 2.1168 14.926 -8.98662
rtibia 1.98785e-015
rfoot 30.2762 -24.3656
rtoes 35.913
lfemur -12.1992 -21.9959 2.74788
ltibia 19.0411
lfoot 37.7627 11.2071
ltoes 18.5479
696
root 10.7468 6.03349 11.6605 -88.5657 4.1963 177.825
lowerback -4.77253 -3.4325 5.24791
upperback 0.859544 -4.93134 0.518386
thorax 3.1673 -2.3694 -2.74545
lowerneck 2.59519 -14.844 -10.3739
upperneck -28.2294 -15.7348 28.7691
head -5.11052 -8.27556 11.6708
rclavicle 2.70347e-014 1.799e-014
rhumerus 31.8926 -34.787 -32.1444
rradius 119.884
rwrist -22.8188
rhand -19.4073 -42.4596
rfingers 7.12502
rthumb 6.91196 -72.3268
lclavicle 2.70347e-014 1.799e-014
lhumerus 18.19 49.1983 3.16282
lradius 108.336
lwrist 34.0826
lhand -5.68548 -24.9865
lfingers 7.12502
lthumb 20.1347 3.99009
rfemur 2.12494 14.9122 -8.97757
rtibia 2.18663e-014
rfoot 30.3031 -24.3477
rtoes 35.9535
lfemur -12.206 -22.0115 2.757
ltibia 19.0422
lfoot 37.7867 11.2179
ltoes 18.6962
697
root 10.7466 6.03344 11.6598 -88.5684 4.19449 177.81
lowerback -4.77001 -3.43342 5.25288
upperback 0.863193 -4.93284 0.51781
thorax 3.16909 -2.36994 -2.74884
lowerneck 2.59766 -14.847 -10.3877
upperneck -28.2425 -15.7228 28.8756
head -5.10179 -8.27812 11.7116
rclavicle 3.81667e-014 -2.45251e-014
rhumerus 31.8957 -34.7957 -32.1504
rradius 119.871
rwrist -22.8156
rhand -19.3898 -42.443
rfingers 7.12502
rthumb 6.92891 -72.3096
lclavicle 3.81667e-014 -2.45251e-014
lhumerus 18.215 49.2035 3.18421
lradius 108.336
lwrist 34.0825
lhand -5.67268 -24.9624
lfingers 7.12502
lthumb 20.147 4.01288
rfemur 2.13368 14.8996 -8.97145
rtibia -3.97569e-016
rfoot 30.3341 -24.3043
rtoes 35.9302
lfemur -12.2091 -22.0286 2.76012
ltibia 19.0399
lfoot 37.8024 11.2214
ltoes 18.7868
698
root 10.7465 6.03358 11.6593 -88.5738 4.19591 177.796
lowerback -4.76243 -3.43501 5.25292
upperback 0.868095 -4.93462 0.516591
thorax 3.16966 -2.37073 -2.74988
lowerneck 2.57539 -14.8653 -10.3808
upperneck -28.232 -15.7302 29.0092
head -5.07623 -8.29376 11.7514
rclavicle 3.02153e-014 6.01324e-015
rhumerus 31.8992 -34.8065 -32.1587
rradius 119.86
rwrist -22.8149
rhand -19.3737 -42.4303
rfingers 7.12502
rthumb 6.94438 -72.2964
lclavicle 3.02153e-014 6.01324e-015
lhumerus 18.2321 49.206 3.19346
lradius 108.339
lwrist 34.1004
lhand -5.6317 -24.9715
lfingers 7.12502
lthumb 20.1864 3.99962
rfemur 2.14362 14.8891 -8.96886
rtibia -5.96354e-015
rfoot 30.35 -24.2667
rtoes 35.8873
lfemur -12.2109 -22.0452 2.75859
ltibia 19.0381
lfoot 37.8058 11.2069
ltoes 18.7781
699
root 10.7465 6.03378 11.659 -88.579 4.19938 177.782
lowerback -4.75551 -3.43707 5.24964
upperback 0.873692 -4.9369 0.51517
thorax 3.17154 -2.37177 -2.7494
lowerneck 2.54715 -14.8876 -10.3606
upperneck -28.212 -15.7498 29.1022
head -5.05103 -8.31274 11.7726
rclavicle -2.22639e-014 8.02593e-015
rhumerus 31.9037 -34.8219 -32.1622
rradius 119.851
rwrist -22.8193
rhand -19.3622 -42.4364
rfingers 7.12502
rthumb 6.95554 -72.3021
lclavicle -2.22639e-014 8.02593e-015
lhumerus 18.2418 49.2079 3.19175
lradius 108.345
lwrist 34.1361
lhand -5.55471 -25.0315
lfingers 7.12502
lthumb 20.2604 3.93178
rfemur 2.1539 14.879 -8.96898
rtibia 2.06736e-014
rfoot 30.3203 -24.2551
rtoes 35.9463
lfemur -12.2169 -22.0585 2.75475
ltibia 19.0422
lfoot 37.8011 11.178
ltoes 18.6814
